<?xml version="1.0" encoding="UTF-8"?>
<svg id="Layer_2" xmlns="http://www.w3.org/2000/svg" version="1.1" viewBox="0 0 245.8 873.3">
  <!-- Generator: Adobe Illustrator 30.6.0, SVG Export Plug-In . SVG Version: 2.1.4 Build 109)  -->
  <defs>
    <style>
      .st0 {
        stroke: #b1bdc9;
      }

      .st0, .st1, .st2, .st3 {
        stroke-linejoin: round;
      }

      .st0, .st4, .st3 {
        fill: none;
      }

      .st0, .st3 {
        stroke-width: 3px;
      }

      .st5 {
        fill: #e2e8f0;
      }

      .st1 {
        fill: #f8fafc;
      }

      .st1, .st2 {
        stroke: #94a3b8;
        stroke-linecap: round;
        stroke-width: 5px;
      }

      .st6, .st2 {
        fill: #cbd5e1;
      }

      .st4 {
        stroke-miterlimit: 10;
      }

      .st4, .st3 {
        stroke: #cbd5e1;
      }

      .st7, .st8 {
        fill: #94a3b8;
      }

      .st9 {
        fill: #e6eaef;
      }

      .st8 {
        font-family: ROKAF-Sans-Medium-KSCpc-EUC-H, 'ROKAF Sans';
        font-size: 7px;
        font-weight: 500;
      }
    </style>
  </defs>
  <polygon class="st1" points="108.4 181.3 109 163 109 163 116.8 62.4 119.4 62.4 238.8 73.5 243.3 18.6 124.4 7.9 66.5 2.5 66.3 4.4 66.3 4.4 62.7 50 62.7 50 62.7 50 62.3 55 62.3 55 53.8 170.1 53.8 170.1 37 407.5 26.3 521 26.1 521 25.6 528.7 25.6 528.7 25.6 528.7 18.6 625.2 2.5 856.5 13.5 857.6 51 861 66.4 662.2 77.9 662.6 119.8 666 113.4 750.2 177 755.8 185.5 639.8 205.1 641.2 213.7 529.9 225.1 432.4 225.1 432.4 232.1 343.5 232.3 343.5 234.1 317.4 234.1 317.4 234.1 317.4 243.1 191.8 108.4 181.3"/>
  <g>
    <polyline class="st3" points="222.7 431.8 90.4 420.6 108.1 183.8"/>
    <line class="st3" x1="117.9" y1="61.7" x2="122.2" y2="9.9"/>
    <line class="st3" x1="73.3" y1="627" x2="82.1" y2="516.9"/>
    <polyline class="st3" points="213.1 529.3 82.1 516 90.1 421.2"/>
    <line class="st3" x1="72.6" y1="628.4" x2="184.4" y2="638.5"/>
  </g>
  <rect class="st5" x="210.5" y="355.1" width="18.2" height="17.3" transform="translate(-162 550.5) rotate(-85)"/>
  <rect class="st7" x="47.8" y="281.3" width="10" height="12" transform="translate(-238 314.7) rotate(-85)"/>
  <rect class="st7" x="55.8" y="169.3" width="10" height="10" transform="translate(-118.2 219.5) rotate(-85)"/>
  <rect class="st5" x="43.4" y="189.4" width="31.2" height="10" transform="translate(-139.9 236.1) rotate(-85)"/>
  <rect class="st5" x="184.1" y="235.2" width="95.6" height="11.8" transform="translate(-26.4 453.7) rotate(-85.6)"/>
  <rect class="st5" x="50.8" y="264.7" width="118.3" height="14.3" transform="translate(-169.6 360.4) rotate(-85.6)"/>
  <rect class="st5" x="3.1" y="545.3" width="57.6" height="8.8" transform="translate(-518.6 539.1) rotate(-85.6)"/>
  <rect class="st5" x="186.9" y="231.9" width="18.2" height="33.6" transform="translate(-67.1 424.9) rotate(-85.6)"/>
  <rect class="st5" x="142.1" y="228.4" width="18.2" height="33.6" transform="translate(-105 377.1) rotate(-85.6)"/>
  <rect class="st5" x="121.8" y="291.8" width="50.4" height="18.2" transform="translate(-164.4 424.2) rotate(-85.6)"/>
  <rect class="st5" x="165.9" y="295.2" width="50.4" height="18.2" transform="translate(-127.1 471.3) rotate(-85.6)"/>
  <rect class="st7" x="64.6" y="47.4" width="10" height="10" transform="translate(11.2 117.1) rotate(-85)"/>
  <rect class="st7" x="37.7" y="396.3" width="10" height="12" transform="translate(-361.8 409.5) rotate(-85)"/>
  <rect class="st7" x="28.2" y="510" width="10" height="12" transform="translate(-483.7 503.8) rotate(-85)"/>
  <rect class="st7" x="19.5" y="621.5" width="10" height="11.3" transform="translate(-602.4 596.5) rotate(-85)"/>
  <rect class="st7" x="10.3" y="735.9" width="10" height="10" transform="translate(-724.1 691.1) rotate(-85)"/>
  <rect class="st7" x="3.3" y="848.8" width="8.1" height="11" transform="translate(-844.3 786.8) rotate(-85)"/>
  <path class="st4" d="M118.3,60.7l1.4-18.6c4.5.4,8.6,2.8,11.5,6.6s4.3,8.7,3.9,13.6l-16.9-1.6Z"/>
  <path class="st4" d="M90.8,418.7l1.4-18.6c4.5.4,8.6,2.8,11.5,6.6s4.3,8.7,3.9,13.6c0,0-16.8-1.6-16.9-1.6Z"/>
  <path class="st4" d="M82.8,514.3l1.4-18.6c4.5.4,8.6,2.8,11.5,6.6s4.3,8.7,3.9,13.6c0,0-16.8-1.6-16.9-1.6Z"/>
  <path class="st4" d="M82.8,516.9l-1.8,18.6c4.5.3,9-1.3,12.5-4.5,3.5-3.2,5.8-7.8,6.2-12.7l-16.9-1.3Z"/>
  <path class="st4" d="M109.6,183.8l-1.8,18.6c4.5.4,9-1.3,12.5-4.5,3.5-3.2,5.8-7.8,6.2-12.7l-16.9-1.3Z"/>
  <rect class="st7" x="215.8" y="286.8" width="10" height="12" transform="translate(-90.2 487.1) rotate(-85)"/>
  <rect class="st7" x="211.1" y="334.5" width="19.8" height="19.8" transform="translate(-141.4 534.2) rotate(-85)"/>
  <rect class="st7" x="207.5" y="404.1" width="10" height="12" transform="translate(-214.6 585.7) rotate(-85)"/>
  <rect class="st6" x="175" y="318.8" width="3.5" height="104.4" transform="translate(-208.4 514.6) rotate(-85)"/>
  <rect class="st5" x="206.2" y="369.4" width="13.9" height="28" transform="translate(-187.6 562.1) rotate(-85)"/>
  <rect class="st5" x="166.2" y="365.9" width="13.9" height="28" transform="translate(-220.5 519.1) rotate(-85)"/>
  <rect class="st5" x="137.4" y="363.4" width="13.9" height="28" transform="translate(-244.3 488.1) rotate(-85)"/>
  <rect class="st5" x="119.7" y="400.9" width="13.9" height="28" transform="translate(-297.8 504.8) rotate(-85)"/>
  <rect class="st5" x="156.2" y="404.1" width="13.9" height="28" transform="translate(-267.7 544) rotate(-85)"/>
  <rect class="st5" x="72.8" y="441.5" width="49.4" height="14.8" transform="translate(-358.2 506.7) rotate(-85)"/>
  <rect class="st5" x="157.3" y="379.6" width="13.3" height="113.2" transform="translate(-285 561.3) rotate(-85)"/>
  <rect class="st5" x="143.3" y="430.3" width="46.4" height="98.4" transform="translate(-328.1 594.1) rotate(-83.9)"/>
  <rect class="st5" x="168" y="601" width="19.7" height="17.9" transform="translate(-79.8 29.2) rotate(-7.7)"/>
  <rect class="st5" x="144.5" y="483.4" width="14.7" height="97.7" transform="translate(-391.6 636.9) rotate(-85)"/>
  <rect class="st5" x="44.6" y="575.9" width="80.5" height="13.3" transform="translate(-502.9 616) rotate(-85)"/>
  <rect class="st5" x="134.6" y="581.8" width="13.3" height="47.7" transform="translate(-476 681.7) rotate(-83.9)"/>
  <rect class="st5" x="171.5" y="568.2" width="58.6" height="13.3" transform="translate(-389.5 724.4) rotate(-85)"/>
  <rect class="st5" x="190.9" y="407.2" width="13.9" height="28" transform="translate(-239 581.4) rotate(-85)"/>
  <circle class="st5" cx="189.8" cy="352.3" r="9"/>
  <path class="st4" d="M72.4,627.3l-1.6,18.6c-5.3-.6-10.3-3.1-13.7-7s-5.2-8.8-4.8-13.8l20.1,2.2h0Z"/>
  <rect class="st6" x="40.3" y="613.6" width="1.9" height="21.4" transform="translate(-584.2 610.7) rotate(-85)"/>
  <polyline class="st2" points="59.2 760 60.1 749.5 176.9 759.6 167.4 870.8 50.5 860.7 56 797.1"/>
  <path class="st7" d="M119.6,801c0-.9.7-1.6,1.6-1.9s1.8,0,2.3.7.7,1.7.2,2.4c-.4.8-1.3,1.2-2.2,1.2-1.2-.1-2.1-1.2-2-2.4h0ZM105.1,799c.9,0,1.7.5,2,1.4s.2,1.8-.5,2.4c-.6.6-1.6.8-2.4.5s-1.4-1.1-1.4-2,.2-1.1.6-1.6c.4-.4,1-.6,1.6-.6h0ZM110,813.6c0,0-.1,0-.2,0-.4,0-.8-.3-.8-.7l-.8-6.2h0c0-.4-.6-.3-.6,0v13.7c0,.2,0,.4-.3.6-.2.2-.4.2-.6.2-.4,0-.8-.4-.8-.8v-5.9c0-.2-.1-.3-.3-.3h-1.1c0,0-.2,0-.2,0s0,.1,0,.2v6c0,.2,0,.4-.3.6-.2.2-.4.2-.6.2-.4,0-.8-.4-.8-.8v-13.7c0-.4-.6-.4-.6,0h0l-.8,6.2c0,.5-.5.8-.9.7-.4,0-.8-.5-.7-.9l.8-6.2c.2-1.4,1.4-2.5,2.8-2.5h3.9c1.4,0,2.6,1,2.8,2.5l.8,6.2h0c0,.4-.2.8-.6.9h0ZM114.1,820.5h0c0,.5-.4.9-.9.9s-.9-.4-.9-.9v-20.7c0-.5.4-.9.9-.9s.9.4.9.9v20.7ZM127.2,813.6c-.2,0-.4,0-.6,0s-.3-.3-.4-.5l-1.6-6.5c0-.2-.1-.3-.2-.4,0-.1-.2-.2-.4,0-.1,0-.2.2-.2.3l1.8,8.4c0,.2,0,.4-.1.5-.1.1-.3.2-.5.2h-1.1v4.9c0,.2,0,.4-.3.6-.2.2-.4.2-.6.2-.4,0-.8-.4-.8-.8v-4.6c0,0,0-.2,0-.2s-.1,0-.2,0h-.5c0,0-.2,0-.2,0s0,.1,0,.2v4.6h0c0,.2,0,.4-.3.6-.2.2-.4.2-.6.2-.4,0-.8-.4-.8-.8v-4.9h-1.1c-.2,0-.4,0-.5-.2-.1-.1-.2-.3-.1-.5l1.8-8.4h0c0-.1,0-.3-.2-.3s-.3,0-.4,0c-.1.1-.2.3-.2.4l-1.6,6.5h0c-.1.4-.6.7-1,.6-.4-.1-.7-.5-.6-1l1.6-6.5c.3-1.2,1.4-2.1,2.6-2.1h3.6c1.3,0,2.4.9,2.6,2.1l1.6,6.5c0,.2,0,.4-.1.6-.1.2-.3.3-.5.4h0Z"/>
  <path class="st6" d="M22.1,649.4c0,0,.2.1.2.1h1.6c0,0,.2,0,.2-.1,0,0,0-.2,0-.3l-.5-2.3s0,0,0-.1v-.8c0,0,0-.2-.1-.2v-7.8c0-.6.5-1,1-1h.2c0,0,0,.2.2.2h.8s0,0,0,.1v.4h0c-.9,0-1.7.8-1.7,1.7v10.7c0,.5.4.8.8.8h3.2c.5,0,.8-.4.8-.8v-10.7c0-.9-.8-1.7-1.7-1.7h0v-.4s0,0,0,0l2.5.6h0s0,0,0,0c0,0,0,0,0-.1v-.4c0,0,0-.2,0-.2l-2.3-.8c0,0-.2,0-.2-.2h0c0,0,2.6-.8,2.6-.8,0,0,.1,0,.1-.2v-.4s0-.1,0-.1,0,0-.2,0l-3.6.7c-.2,0-.4.2-.4.4h-.9c0,0-.2,0-.2.2h-.2c-1.2,0-2.2,1-2.2,2.2v7.8c0,0,0,0,0,.2v.8s0,0,0,.1l-.5,2.3c0,0,0,.2,0,.3h0ZM26.8,636.2c.3,0,.5.2.5.5s-.2.5-.5.5-.5-.2-.5-.5h0c0-.3.2-.5.5-.5Z"/>
  <path class="st6" d="M13.8,761.9c0,0,.2.1.2.1h1.6c0,0,.2,0,.2-.1,0,0,0-.2,0-.3l-.5-2.3s0,0,0-.1v-.8c0,0,0-.2-.1-.2v-7.8c0-.6.5-1,1-1h.2c0,0,0,.2.2.2h.8s0,0,0,.1v.4h0c-.9,0-1.7.8-1.7,1.7v10.7c0,.5.4.8.8.8h3.2c.5,0,.8-.4.8-.8v-10.7c0-.9-.8-1.7-1.7-1.7h0v-.4s0,0,0,0l2.5.6h0s0,0,0,0c0,0,0,0,0-.1v-.4c0,0,0-.2,0-.2l-2.3-.8c0,0-.2,0-.2-.2h0c0,0,2.6-.8,2.6-.8,0,0,.1,0,.1-.2v-.4s0-.1,0-.1,0,0-.2,0l-3.6.7c-.2,0-.4.2-.4.4h-.9c0,0-.2,0-.2.2h-.2c-1.2,0-2.2,1-2.2,2.2v7.8c0,0,0,0,0,.2v.8s0,0,0,.1l-.5,2.3c0,0,0,.2,0,.3h0ZM18.5,748.7c.3,0,.5.2.5.5s-.2.5-.5.5-.5-.2-.5-.5h0c0-.3.2-.5.5-.5Z"/>
  <g>
    <path class="st6" d="M34.6,495.8v11.6c0,.2.2.4.4.4h9.1c.2,0,.4-.2.4-.4v-11.6c0-.2-.2-.4-.4-.4h-1.4c0-.2.2-.4.2-.6v-5.3c0-.8-.7-1.5-1.5-1.5h-3.7c-.8,0-1.5.7-1.5,1.5v5.3c0,.2,0,.5.2.6h-1.4c-.2,0-.4.2-.4.4h0ZM37.1,489.5c0-.4.3-.6.7-.6h3.7c.4,0,.7.3.7.6v1.9c-.5-.2-1-.1-1.6.2-.6-.4-1.2-.4-1.7,0-.5-.3-1.1-.4-1.6-.2v-1.9h0ZM37.1,492.3c.5-.3.9-.3,1.4.1.2.1.4.1.5,0,.4-.4.7-.4,1.1,0,0,0,.2.1.3.1s.2,0,.2,0c.7-.5,1.1-.4,1.4-.1v2.5c0,.4-.3.6-.7.6h-3.7c-.4,0-.7-.3-.7-.6v-2.4ZM35.5,496.2h8.3v10.7h-8.3s0-10.7,0-10.7Z"/>
    <path class="st6" d="M42.5,497.9h-5.8c-.2,0-.4.2-.4.4v3.3c0,.2.2.4.4.4h5.8c.2,0,.4-.2.4-.4v-3.3c0-.2-.2-.4-.4-.4ZM42.1,501.2h-5v-2.5h.8v1.2h.8v-1.2h1.7v1.2h.8v-1.2h.8v2.5h0Z"/>
  </g>
  <path class="st6" d="M42.3,393.7c0,0,.2.1.2.1h1.6c0,0,.2,0,.2-.1,0,0,0-.2,0-.3l-.5-2.3s0,0,0-.1v-.8c0,0,0-.1-.1-.2v-7.8c0-.6.5-1,1-1h.2c0,.1,0,.2.2.2h.8s0,0,0,.1v.4h0c-.9,0-1.7.8-1.7,1.7v10.7c0,.5.4.8.8.8h3.2c.5,0,.8-.4.8-.8v-10.7c0-.9-.8-1.7-1.7-1.7h0v-.4s0,0,0,0l2.5.6h0s0,0,0,0c0,0,0,0,0-.1v-.4c0,0,0-.2,0-.2l-2.3-.8c0,0-.2,0-.2-.2h0c0,0,2.6-.8,2.6-.8,0,0,.1,0,.1-.2v-.4s0-.1,0-.1c0,0,0,0-.2,0l-3.6.7c-.2,0-.4.2-.4.4h-.9c0,0-.2,0-.2.2h-.2c-1.2,0-2.2,1-2.2,2.2v7.8c0,0,0,0,0,.2v.8s0,.1,0,.1l-.5,2.3c0,0,0,.2,0,.3h0ZM47,380.5c.3,0,.5.2.5.5s-.2.5-.5.5-.5-.2-.5-.5h0c0-.3.2-.5.5-.5Z"/>
  <path class="st6" d="M52.7,278.5c0,0,.2.1.2.1h1.6c0,0,.2,0,.2-.1,0,0,0-.2,0-.3l-.5-2.3s0,0,0-.1v-.8c0,0,0-.1-.1-.2v-7.8c0-.6.5-1,1.1-1h.2c0,.1,0,.2.2.2h.8s0,0,0,.1v.4h0c-.9,0-1.7.8-1.7,1.7v10.7c0,.5.4.8.8.8h3.2c.5,0,.8-.4.8-.8v-10.7c0-.9-.8-1.7-1.7-1.7h0v-.4s0,0,0,0l2.5.6h0s0,0,0,0c0,0,0,0,0-.1v-.4c0,0,0-.2,0-.2l-2.3-.8c0,0-.2,0-.2-.2h0c0,0,2.6-.8,2.6-.8,0,0,.1,0,.1-.2v-.4s0-.1,0-.1c0,0,0,0-.2,0l-3.6.7c-.2,0-.4.2-.4.4h-.9c0,0-.2,0-.2.2h-.2c-1.2,0-2.2,1-2.2,2.2v7.8c0,0,0,0,0,.2v.8s0,.1,0,.1l-.5,2.3c0,0,0,.2,0,.3h0ZM57.4,265.3c.3,0,.5.2.5.5s-.2.5-.5.5-.5-.2-.5-.5h0c0-.3.2-.5.5-.5Z"/>
  <path class="st6" d="M69.6,20.1c0,0,.1.1.2.1h1.3c0,0,.2,0,.2-.1,0,0,0-.1,0-.2l-.4-1.9s0,0,0-.1v-.6c0,0,0-.1-.1-.1v-6.5c0-.5.4-.9.9-.9h.2c0,0,0,.1.2.1h.7s0,0,0,.1v.4h0c-.8,0-1.4.6-1.4,1.4v9c0,.4.3.7.7.7h2.7c.4,0,.7-.3.7-.7v-9c0-.8-.6-1.4-1.4-1.4h0v-.4s0,0,0,0l2.1.5h0s0,0,0,0c0,0,0,0,0-.1v-.3c0,0,0-.1,0-.2l-2-.6c0,0-.1,0-.2-.1h0c0,0,2.1-.7,2.1-.7,0,0,.1,0,.1-.1v-.4s0,0,0-.1,0,0-.1,0l-3,.6c-.2,0-.3.2-.3.3h-.8c0,0-.1,0-.2.1h-.2c-1,0-1.8.8-1.8,1.8v6.5c0,0,0,0,0,.1v.6s0,0,0,.1l-.4,1.9c0,0,0,.2,0,.2h0ZM73.5,9.1c.2,0,.4.2.4.4s-.2.4-.4.4-.4-.2-.4-.4h0c0-.2.2-.4.4-.4Z"/>
  <rect class="st5" x="162.8" y="9.8" width="18.2" height="50.8" transform="translate(120.5 202.9) rotate(-84.5)"/>
  <rect class="st5" x="113.1" y="20.6" width="26.9" height="7.8" transform="translate(90.1 148.1) rotate(-84.5)"/>
  <rect class="st5" x="224.4" y="19.5" width="14.6" height="17.1" transform="translate(185.9 256.9) rotate(-85.6)"/>
  <rect class="st5" x="209.3" y="15.9" width="10.4" height="17.1" transform="translate(173.6 236.4) rotate(-85.6)"/>
  <rect class="st5" x="211.7" y="43.2" width="13.7" height="38.2" transform="translate(139.5 275.4) rotate(-85.6)"/>
  <rect class="st5" x="186" y="53.7" width="13.3" height="12.8" transform="translate(117.9 247.6) rotate(-85.6)"/>
  <rect class="st5" x="165.1" y="43.8" width="8.7" height="32.7" transform="translate(96.3 224.4) rotate(-85.6)"/>
  <path class="st6" d="M40,415.1h.4l.6,7.7c0,.6.5,1,1.1,1h5.9c.6,0,1-.4,1.1-1l.6-7.7h.4c.2,0,.4-.2.4-.4v-1.5c0-.2-.2-.4-.4-.4h-.5l-1.3-2.7c0-.1-.2-.2-.3-.2h-5.8c-.1,0-.3,0-.3.2l-1.3,2.7h-.5c-.2,0-.4.2-.4.4v1.5c0,.2.2.4.4.4h0ZM46.9,423.1h-3.6v-4c0-.2.2-.4.4-.4h2.9c.2,0,.4.2.4.4v4h0ZM48.4,422.7c0,.2-.2.3-.4.3h-.4v-4c0-.6-.5-1.1-1.1-1.1h-2.9c-.6,0-1.1.5-1.1,1.1v4h-.4c-.2,0-.3-.1-.4-.3l-.6-7.7h7.9l-.6,7.7h0ZM43.3,410.7h3.6v.7h-3.6s0-.7,0-.7ZM42.4,410.7h.1v1.1c0,.2.2.4.4.4h4.4c.2,0,.4-.2.4-.4v-1.1h.1l1.1,2.2h-7.5l1.1-2.2h0ZM40.3,413.6h9.5v.7h-9.5v-.7Z"/>
  <rect class="st6" x="134.1" y="685.2" width="59.3" height="29.6" transform="translate(-546.5 811.3) rotate(-85.7)"/>
  <g>
    <line class="st0" x1="152" y1="677.1" x2="179.1" y2="679.2"/>
    <line class="st0" x1="151.1" y1="685.4" x2="178.2" y2="687.4"/>
    <line class="st0" x1="150.6" y1="693.7" x2="177.7" y2="695.7"/>
    <line class="st0" x1="149.8" y1="702" x2="177" y2="704"/>
    <line class="st0" x1="149.4" y1="710.3" x2="176.5" y2="712.3"/>
    <line class="st0" x1="148.4" y1="718.6" x2="175.6" y2="720.6"/>
    <line class="st0" x1="147.9" y1="726.9" x2="175.1" y2="728.9"/>
  </g>
  <polygon class="st9" points="146.7 727.2 151 669.3 121.4 667.1 117.1 725 117.1 725 115.2 749.9 175.1 754.4 176.9 729.4 146.7 727.2"/>
  <g>
    <line class="st3" x1="149.8" y1="669.2" x2="145.5" y2="728.9"/>
    <line class="st3" x1="121.4" y1="675.4" x2="148.6" y2="677.5"/>
    <line class="st3" x1="120.6" y1="683.7" x2="147.7" y2="685.8"/>
    <line class="st3" x1="120" y1="692" x2="147.2" y2="694.1"/>
    <line class="st3" x1="119.3" y1="700.3" x2="146.4" y2="702.4"/>
    <line class="st3" x1="118.8" y1="708.6" x2="146" y2="710.7"/>
    <line class="st3" x1="117.9" y1="716.9" x2="145" y2="719"/>
    <line class="st3" x1="117.4" y1="725.2" x2="144.5" y2="727.3"/>
  </g>
  <g>
    <path class="st6" d="M114.6,26.7c-.2-.3-.6-.5-1-.7-.6-.3-1.3-.5-2.1-.6h.2c0,0,2.9-.9,2.9-.9,0,0,0,0,.1,0,0,0,0-.1,0-.2l-.4-1.4s0,0,0-.1-.1,0-.2,0l-2.9.9-4.9,1.4s0,0-.1,0c0,0,0,.1,0,.2v.4c-.6.2-1.2.5-1.6.8-.5.4-.8.8-.8,1.3v2.6c0,.7.6,1.3,1.7,1.8,1,.4,2.4.7,3.9.7s2.8-.2,3.9-.7c1.1-.5,1.7-1.1,1.7-1.8v-2.6c0-.3-.1-.6-.4-.9h0ZM111,23.9l.2.8v.2c0,0-.9.3-.9.3l-3.4,1-.3-1,4.4-1.3h0ZM113.3,28.8c-.8.4-1.9.6-3.2.7-.1,0-.2,0-.2.2v.9h-1.2v-.9c0-.1,0-.2-.2-.2-1.2,0-2.4-.3-3.2-.7-.8-.4-1.2-.8-1.2-1.3s.3-.7.6-.9c.4-.3.9-.5,1.6-.7l.2.6s0,0,0,.1c0,0,0,0,.1,0s0,0,0,0l3.6-1c1.2,0,2.2.4,3,.7.7.3,1.1.8,1.1,1.2s-.4.9-1.2,1.3h0Z"/>
    <path class="st6" d="M104.8,21.4c0,0,.1,0,.2.2,0,0,0,.2,0,.2l-.2.4c0,.1,0,.2,0,.3,0,0,0,0,0,0,0,0,.1,0,.2-.1l.2-.4c.1-.2.1-.4,0-.6,0-.2-.2-.3-.4-.4,0,0-.1,0-.2-.2,0,0,0-.2,0-.3l.2-.3c0,0,0-.2,0-.3,0,0-.2,0-.3,0l-.2.3c-.1.2-.2.4-.1.6,0,.2.2.4.4.5h0Z"/>
    <path class="st6" d="M104,23.5c0,0,.1,0,.2.2,0,0,0,.2,0,.2l-.2.4c0,.1,0,.2,0,.3,0,0,0,0,0,0,0,0,.1,0,.2-.1l.2-.4c.1-.2.1-.4,0-.6,0-.2-.2-.3-.4-.4,0,0-.1,0-.2-.2,0,0,0-.2,0-.3l.2-.3c0,0,0-.2,0-.3,0,0-.2,0-.3,0l-.2.3c-.1.2-.2.4-.1.6,0,.2.2.4.4.5h0Z"/>
    <path class="st6" d="M105.1,23.4c0,.2.2.4.4.5,0,0,.1,0,.2.2,0,0,0,.2,0,.2l-.2.4c0,.1,0,.2,0,.3,0,0,0,0,0,0,0,0,.1,0,.2-.1l.2-.4c.1-.2.1-.4,0-.6,0-.2-.2-.3-.4-.4,0,0-.1,0-.2-.2,0,0,0-.2,0-.3l.2-.3c0,0,0-.2,0-.3,0,0-.2,0-.3,0l-.2.3c-.1.2-.2.4-.1.6h0Z"/>
  </g>
  <polygon class="st6" points="113.9 15.2 111 12.1 107.6 14.6 108.4 15.6 110.2 14.3 109.7 20 110.9 20.2 111.4 14.4 113 16.1 113.9 15.2"/>
  <polygon class="st7" points="124.3 573.4 120 570.4 115.7 573.5 117.3 568.5 113.1 565.4 118.3 565.4 119.9 560.3 121.6 565.3 126.9 565.3 122.6 568.4 124.3 573.4"/>
  <text class="st8" transform="translate(106.8 582.6)"><tspan x="0" y="0">시작지점</tspan></text>
  <g>
    <text class="st8" transform="translate(86.7 34.4)"><tspan x="0" y="0">돌탑</tspan></text>
    <g>
      <path class="st7" d="M92,18c-.2,0-.3.2-.5.3-.4.3-.7.6-1,1-.2.4-.4.7-.4,1,0,.2,0,.4.2.5.1.2.3.3.7.4.8.2,2.3.2,3.6,0,.7-.1,1.3-.3,1.9-.5.5-.2.9-.4,1.1-.7,0-.2,0-.6,0-1.1-.2-.6-.5-1.3-1.3-1.5-.2,0-.3,0-.5,0-.7.3-1.6.5-2.5.6-.4,0-.9,0-1.3,0Z"/>
      <path class="st7" d="M95.7,17.2c-.6.2-1.6.4-2.4.5-.6,0-1.1,0-1.6,0-.5,0-.8-.2-1-.3-.1-.2-.2-.7-.2-1.1,0-.5.2-.9.7-1.2,1.2-.7,2.8-.8,4-.4.6.2,1.1.6,1.4,1.1.1.2.2.4.1.6,0,.2-.2.4-.5.5-.1,0-.2.1-.4.2,0,0,0,0,0,0h0Z"/>
      <path class="st7" d="M97,20.8c-.1,0-.2,0-.3.1-.5.2-1.2.4-1.9.5-1.3.2-2.7.2-3.6,0-.5.2-.9.5-1.3.7-2.1,1.4-1.9,2.4.7,3,2.5.6,7.3,1.2,8.6-.7.3-1,.4-3.1-1.7-3.6-.2,0-.3,0-.5-.1Z"/>
    </g>
  </g>
  <g>
    <text class="st8" transform="translate(195.8 222.3)"><tspan x="0" y="0">돌탑</tspan></text>
    <g>
      <path class="st7" d="M201.1,205.9c-.2,0-.3.2-.5.3-.4.3-.7.6-1,1-.2.4-.4.7-.4,1,0,.2,0,.4.2.5.1.2.3.3.7.4.8.2,2.3.2,3.6,0,.7-.1,1.3-.3,1.9-.5.5-.2.9-.4,1.1-.7,0-.2,0-.6,0-1.1-.2-.6-.5-1.3-1.3-1.5-.2,0-.3,0-.5,0-.7.3-1.6.5-2.5.6-.4,0-.9,0-1.3,0Z"/>
      <path class="st7" d="M204.8,205c-.6.2-1.6.4-2.4.5-.6,0-1.1,0-1.6,0-.5,0-.8-.2-1-.3-.1-.2-.2-.7-.2-1.1,0-.5.2-.9.7-1.2,1.2-.7,2.8-.8,4-.4.6.2,1.1.6,1.4,1.1.1.2.2.4.1.6,0,.2-.2.4-.5.5-.1,0-.2.1-.4.2,0,0,0,0,0,0h0Z"/>
      <path class="st7" d="M206,208.6c-.1,0-.2,0-.3.1-.5.2-1.2.4-1.9.5-1.3.2-2.7.2-3.6,0-.5.2-.9.5-1.3.7-2.1,1.4-1.9,2.4.7,3,2.5.6,7.3,1.2,8.6-.7.3-1,.4-3.1-1.7-3.6-.2,0-.3,0-.5-.1Z"/>
    </g>
  </g>
  <g>
    <text class="st8" transform="translate(166.9 571.1)"><tspan x="0" y="0">돌탑</tspan></text>
    <g>
      <path class="st7" d="M172.2,554.6c-.2,0-.3.2-.5.3-.4.3-.7.6-1,1-.2.4-.4.7-.4,1,0,.2,0,.4.2.5.1.2.3.3.7.4.8.2,2.3.2,3.6,0,.7-.1,1.3-.3,1.9-.5.5-.2.9-.4,1.1-.7,0-.2,0-.6,0-1.1-.2-.6-.5-1.3-1.3-1.5-.2,0-.3,0-.5,0-.7.3-1.6.5-2.5.6-.4,0-.9,0-1.3,0Z"/>
      <path class="st7" d="M175.9,553.8c-.6.2-1.6.4-2.4.5-.6,0-1.1,0-1.6,0-.5,0-.8-.2-1-.3-.1-.2-.2-.7-.2-1.1,0-.5.2-.9.7-1.2,1.2-.7,2.8-.8,4-.4.6.2,1.1.6,1.4,1.1.1.2.2.4.1.6,0,.2-.2.4-.5.5-.1,0-.2.1-.4.2,0,0,0,0,0,0h0Z"/>
      <path class="st7" d="M177.1,557.4c-.1,0-.2,0-.3.1-.5.2-1.2.4-1.9.5-1.3.2-2.7.2-3.6,0-.5.2-.9.5-1.3.7-2.1,1.4-1.9,2.4.7,3,2.5.6,7.3,1.2,8.6-.7.3-1,.4-3.1-1.7-3.6-.2,0-.3,0-.5-.1Z"/>
    </g>
  </g>
  <g>
    <text class="st8" transform="translate(32.9 830.1)"><tspan x="0" y="0">돌탑</tspan></text>
    <g>
      <path class="st7" d="M38.2,813.7c-.2,0-.3.2-.5.3-.4.3-.7.6-1,1-.2.4-.4.7-.4,1,0,.2,0,.4.2.5.1.2.3.3.7.4.8.2,2.3.2,3.6,0,.7-.1,1.3-.3,1.9-.5.5-.2.9-.4,1.1-.7,0-.2,0-.6,0-1.1-.2-.6-.5-1.3-1.3-1.5-.2,0-.3,0-.5,0-.7.3-1.6.5-2.5.6-.4,0-.9,0-1.3,0Z"/>
      <path class="st7" d="M41.9,812.8c-.6.2-1.6.4-2.4.5-.6,0-1.1,0-1.6,0-.5,0-.8-.2-1-.3-.1-.2-.2-.7-.2-1.1,0-.5.2-.9.7-1.2,1.2-.7,2.8-.8,4-.4.6.2,1.1.6,1.4,1.1.1.2.2.4.1.6,0,.2-.2.4-.5.5-.1,0-.2.1-.4.2,0,0,0,0,0,0h0Z"/>
      <path class="st7" d="M43.2,816.4c-.1,0-.2,0-.3.1-.5.2-1.2.4-1.9.5-1.3.2-2.7.2-3.6,0-.5.2-.9.5-1.3.7-2.1,1.4-1.9,2.4.7,3,2.5.6,7.3,1.2,8.6-.7.3-1,.4-3.1-1.7-3.6-.2,0-.3,0-.5-.1Z"/>
    </g>
  </g>
</svg>