<?xml version="1.0" encoding="UTF-8"?>
<svg id="Layer_2" data-name="Layer 2" xmlns="http://www.w3.org/2000/svg" viewBox="0 0 292.35 879.3">
  <defs>
    <style>
      .cls-1 {
        stroke: #b1bdc9;
      }

      .cls-1, .cls-2, .cls-3, .cls-4 {
        stroke-linejoin: round;
      }

      .cls-1, .cls-5, .cls-4 {
        fill: none;
      }

      .cls-1, .cls-4 {
        stroke-width: 3px;
      }

      .cls-6 {
        fill: #e2e8f0;
      }

      .cls-2 {
        fill: #f8fafc;
      }

      .cls-2, .cls-3 {
        stroke: #94a3b8;
        stroke-linecap: round;
        stroke-width: 5px;
      }

      .cls-7, .cls-3 {
        fill: #cbd5e1;
      }

      .cls-5 {
        stroke-miterlimit: 10;
      }

      .cls-5, .cls-4 {
        stroke: #cbd5e1;
      }

      .cls-8 {
        fill: #94a3b8;
      }

      .cls-9 {
        fill: #e6eaef;
      }
    </style>
  </defs>
  <polygon class="cls-2" points="128.32 183.82 128.98 165.54 128.98 165.54 136.72 64.96 139.33 64.99 258.8 76.04 263.23 21.13 144.39 10.42 86.47 5.05 86.26 6.96 86.24 6.95 82.66 52.59 82.66 52.59 82.66 52.59 82.27 57.57 82.29 57.57 73.77 172.64 73.81 172.65 56.97 410.02 46.26 523.59 46.09 523.58 45.54 531.21 45.54 531.21 45.54 531.21 38.61 627.8 22.47 859.09 33.43 860.12 70.94 863.59 86.38 664.78 97.91 665.19 139.79 668.55 133.4 752.79 196.97 758.35 205.47 642.38 225.04 643.78 233.66 532.5 245.08 434.97 245.08 434.97 252.06 346.05 252.24 346.07 254.11 319.96 254.11 319.96 254.11 319.96 263.11 194.34 128.32 183.82"/>
  <g>
    <polyline class="cls-4" points="242.63 434.32 110.33 423.13 128.08 186.34"/>
    <line class="cls-4" x1="137.88" y1="64.26" x2="142.17" y2="12.42"/>
    <line class="cls-4" x1="93.25" y1="629.55" x2="102.1" y2="519.43"/>
    <polyline class="cls-4" points="233.08 531.84 102.1 518.6 110.04 423.73"/>
    <line class="cls-4" x1="92.6" y1="630.98" x2="204.32" y2="641.01"/>
  </g>
  <rect class="cls-6" x="230.92" y="357.17" width="17.26" height="18.19" transform="translate(33.01 -19.58) rotate(5.03)"/>
  <rect class="cls-8" x="66.77" y="284.85" width="11.99" height="9.97" transform="translate(25.68 -5.26) rotate(5.03)"/>
  <rect class="cls-8" x="75.74" y="171.8" width="9.97" height="9.97" transform="translate(15.8 -6.39) rotate(5.03)"/>
  <rect class="cls-6" x="73.97" y="181.39" width="9.97" height="31.17" transform="translate(17.56 -6.16) rotate(5.03)"/>
  <rect class="cls-6" x="246" y="195.81" width="11.82" height="95.61" transform="translate(19.55 -18.71) rotate(4.43)"/>
  <rect class="cls-6" x="122.78" y="215.24" width="14.26" height="118.31" transform="translate(21.56 -9.21) rotate(4.43)"/>
  <rect class="cls-6" x="47.59" y="523.45" width="8.76" height="57.63" transform="translate(42.77 -2.36) rotate(4.43)"/>
  <rect class="cls-6" x="206.87" y="234.48" width="18.18" height="33.59" transform="translate(483.16 55.35) rotate(94.43)"/>
  <rect class="cls-6" x="162.11" y="231.02" width="18.18" height="33.59" transform="translate(431.49 96.24) rotate(94.43)"/>
  <rect class="cls-6" x="157.8" y="278.28" width="18.18" height="50.35" transform="translate(309.88 618.88) rotate(-175.57)"/>
  <rect class="cls-6" x="201.89" y="281.69" width="18.18" height="50.35" transform="translate(397.65 629.1) rotate(-175.57)"/>
  <rect class="cls-8" x="84.56" y="49.99" width="9.97" height="9.97" transform="translate(5.16 -7.63) rotate(5.03)"/>
  <rect class="cls-8" x="56.66" y="399.82" width="11.99" height="9.97" transform="translate(35.71 -3.93) rotate(5.03)"/>
  <rect class="cls-8" x="47.18" y="513.51" width="11.99" height="9.97" transform="translate(45.64 -2.66) rotate(5.03)"/>
  <rect class="cls-8" x="38.83" y="624.72" width="11.25" height="9.97" transform="translate(55.35 -1.47) rotate(5.03)"/>
  <rect class="cls-8" x="30.26" y="738.45" width="9.97" height="9.97" transform="translate(65.28 -.23) rotate(5.03)"/>
  <rect class="cls-8" x="21.9" y="852.79" width="11.04" height="8.12" transform="translate(75.18 .89) rotate(5.03)"/>
  <path class="cls-5" d="M138.3,63.26l1.41-18.6c4.47.43,8.61,2.8,11.5,6.59,2.89,3.79,4.31,8.7,3.94,13.63l-16.85-1.62Z"/>
  <path class="cls-5" d="M110.81,421.3l1.41-18.6c4.47.43,8.61,2.8,11.5,6.59,2.89,3.79,4.31,8.7,3.94,13.63l-16.85-1.62Z"/>
  <path class="cls-5" d="M102.8,516.87l1.41-18.6c4.47.43,8.61,2.8,11.5,6.59,2.89,3.79,4.31,8.7,3.94,13.63l-16.85-1.62Z"/>
  <path class="cls-5" d="M102.8,519.43l-1.82,18.56c4.47.35,8.96-1.28,12.46-4.51,3.5-3.24,5.75-7.82,6.23-12.74l-16.87-1.31Z"/>
  <path class="cls-5" d="M129.54,186.34l-1.82,18.56c4.47.35,8.96-1.28,12.46-4.51,3.5-3.24,5.75-7.82,6.23-12.74l-16.87-1.31Z"/>
  <rect class="cls-8" x="234.83" y="290.34" width="11.99" height="9.97" transform="translate(26.8 -19.97) rotate(5.03)"/>
  <rect class="cls-8" x="231.06" y="337" width="19.75" height="19.75" transform="translate(31.32 -19.78) rotate(5.03)"/>
  <rect class="cls-8" x="226.44" y="407.6" width="11.99" height="9.97" transform="translate(37.05 -18.78) rotate(5.03)"/>
  <rect class="cls-7" x="195" y="321.42" width="3.51" height="104.45" transform="translate(586.21 210.38) rotate(95.03)"/>
  <rect class="cls-6" x="226.14" y="372.01" width="13.89" height="28.02" transform="translate(638.04 187.66) rotate(95.03)"/>
  <rect class="cls-6" x="186.18" y="368.5" width="13.89" height="28.02" transform="translate(591.08 223.64) rotate(95.03)"/>
  <rect class="cls-6" x="157.39" y="365.96" width="13.89" height="28.02" transform="translate(557.24 249.57) rotate(95.03)"/>
  <rect class="cls-6" x="139.71" y="403.51" width="13.89" height="28.02" transform="translate(575.42 308.01) rotate(95.03)"/>
  <rect class="cls-6" x="176.18" y="406.71" width="13.89" height="28.02" transform="translate(618.27 275.17) rotate(95.03)"/>
  <rect class="cls-6" x="92.78" y="444.06" width="49.44" height="14.79" transform="translate(577.51 373.96) rotate(95.03)"/>
  <rect class="cls-6" x="177.29" y="382.2" width="13.27" height="113.21" transform="translate(637.16 294.05) rotate(95.03)"/>
  <rect class="cls-6" x="163.21" y="432.87" width="46.45" height="98.44" transform="translate(685.62 347.96) rotate(96.1)"/>
  <rect class="cls-6" x="188.82" y="602.62" width="17.85" height="19.65" transform="translate(778.34 334.77) rotate(82.33)"/>
  <rect class="cls-6" x="164.51" y="486.01" width="14.72" height="97.67" transform="translate(719.72 410.5) rotate(95.03)"/>
  <rect class="cls-6" x="64.61" y="578.48" width="80.5" height="13.31" transform="translate(696.93 531.95) rotate(95.03)"/>
  <rect class="cls-6" x="137.36" y="601.55" width="47.73" height="13.31" transform="translate(256.8832 1230.0945) rotate(-173.898)"/>
  <rect class="cls-6" x="191.42" y="570.74" width="58.55" height="13.31" transform="translate(-373.82 746.65) rotate(-84.97)"/>
  <rect class="cls-6" x="210.92" y="409.77" width="13.89" height="28.02" transform="translate(659.11 243.89) rotate(95.03)"/>
  <circle class="cls-6" cx="209.79" cy="354.89" r="8.96"/>
  <path class="cls-5" d="M92.41,629.83l-1.6,18.59c-5.33-.57-10.27-3.08-13.74-6.96s-5.18-8.84-4.75-13.77l20.09,2.15Z"/>
  <rect class="cls-7" x="60.31" y="616.17" width="1.89" height="21.39" transform="translate(691.08 620.77) rotate(95.03)"/>
  <polyline class="cls-3" points="79.15 762.54 80.05 752.1 196.91 762.15 187.35 873.32 70.49 863.27 75.96 799.66"/>
  <path class="cls-8" d="M139.58,803.56c.09-.89.7-1.63,1.55-1.89.85-.26,1.78.02,2.34.71.56.69.66,1.65.24,2.43-.42.79-1.27,1.24-2.16,1.15-1.21-.12-2.09-1.2-1.97-2.41ZM125.1,801.58c.89,0,1.69.54,2.03,1.36.34.82.15,1.77-.48,2.4-.63.63-1.58.82-2.4.48-.82-.34-1.36-1.14-1.36-2.03,0-.58.23-1.14.64-1.56.41-.41.97-.64,1.56-.64h0ZM129.98,816.17c-.07.02-.13.03-.2.03-.42,0-.77-.31-.82-.72l-.75-6.2h0c-.05-.39-.61-.35-.61.03v13.71c0,.23-.09.44-.26.6-.16.16-.38.24-.61.23-.45-.03-.79-.4-.79-.85v-5.92c0-.17-.14-.31-.31-.31h-1.05c-.08,0-.16.03-.22.09-.06.06-.09.14-.09.22v5.95c0,.23-.09.44-.26.6-.16.16-.39.24-.61.23-.45-.03-.79-.4-.79-.85v-13.69c0-.38-.56-.42-.61-.04h0s0,0,0,0l-.75,6.2c-.05.45-.47.78-.92.72-.45-.06-.78-.47-.72-.92l.75-6.2c.17-1.4,1.36-2.45,2.77-2.45h3.95,0c1.41,0,2.59,1.05,2.77,2.45l.75,6.18h0c.06.42-.21.82-.62.92h0ZM134.03,823.08h0c0,.49-.39.88-.88.88s-.88-.39-.88-.88v-20.73c0-.49.39-.88.88-.88s.88.39.88.88v20.73ZM147.17,816.17c-.21.05-.44.02-.63-.1-.19-.12-.32-.3-.37-.51l-1.55-6.47c-.04-.15-.11-.29-.2-.42-.09-.11-.24-.15-.37-.08-.13.06-.2.2-.17.34l1.8,8.44c.04.18,0,.36-.12.5-.11.14-.28.22-.46.22h-1.1v4.92c0,.23-.09.44-.26.6-.16.16-.38.24-.61.23-.45-.03-.79-.4-.79-.85v-4.59c0-.08-.03-.16-.09-.22-.06-.06-.14-.09-.22-.09h-.49c-.08,0-.16.03-.22.09s-.09.14-.09.22v4.61h0c0,.23-.09.44-.26.6-.16.16-.38.24-.61.23-.45-.03-.79-.4-.79-.85v-4.9h-1.1c-.18,0-.35-.08-.47-.22-.11-.14-.16-.32-.12-.5l1.8-8.44h0c.03-.14-.04-.28-.17-.34-.13-.06-.28-.03-.37.08-.1.12-.17.26-.2.42l-1.55,6.47h0c-.11.44-.55.72-1,.61-.44-.11-.72-.55-.61-1l1.55-6.47c.29-1.23,1.39-2.09,2.65-2.09h3.6c1.26,0,2.35.86,2.64,2.09l1.56,6.47c.05.21.01.44-.1.63-.12.19-.3.32-.51.37h0Z"/>
  <path class="cls-7" d="M42.06,651.99c.06.07.15.12.24.12h1.6c.09,0,.18-.04.24-.12.06-.07.08-.17.06-.26l-.49-2.3s.07-.08.07-.14v-.77c0-.08-.05-.15-.13-.17v-7.82c0-.58.47-1.05,1.05-1.05h.23c0,.1.08.18.18.18,0,0,0,0,0,0h.83s.05.09.07.13v.44h-.05c-.92,0-1.67.75-1.67,1.67v10.74c0,.46.37.83.83.83h3.24c.46,0,.83-.37.83-.83v-10.74c0-.92-.75-1.67-1.67-1.67h-.05v-.43s.01-.02.02-.03l2.48.6s.03,0,.04,0c.04,0,.07,0,.1-.03.04-.03.07-.07.08-.12l.07-.36c.02-.09-.04-.18-.12-.21l-2.35-.78c-.08-.03-.15-.09-.19-.16l-.03-.06,2.56-.72c.08-.02.13-.09.13-.18v-.42c0-.05-.03-.11-.07-.14-.04-.03-.1-.05-.15-.04l-3.61.7c-.2.04-.36.2-.39.4h-.92c-.09,0-.17.07-.18.16h-.25c-1.19,0-2.16.97-2.16,2.16v7.78c-.06.03-.1.09-.1.16v.77c0,.05.02.1.07.14l-.49,2.3c-.02.09,0,.19.06.26ZM46.74,638.79c.28,0,.52.23.52.52s-.23.52-.52.52c-.28,0-.52-.23-.52-.52h0c0-.29.23-.52.52-.52Z"/>
  <path class="cls-7" d="M33.79,764.46c.06.07.15.12.24.12h1.6c.09,0,.18-.04.24-.12.06-.07.08-.17.06-.26l-.49-2.3s.07-.08.07-.14v-.77c0-.08-.05-.15-.13-.17v-7.82c0-.58.47-1.05,1.05-1.05h.23c0,.1.08.18.18.18,0,0,0,0,0,0h.83s.05.09.07.13v.44h-.05c-.92,0-1.67.75-1.67,1.67v10.74c0,.46.37.83.83.83h3.24c.46,0,.83-.37.83-.83v-10.74c0-.92-.75-1.67-1.67-1.67h-.05v-.43s.01-.02.02-.03l2.48.6s.03,0,.04,0c.04,0,.07,0,.1-.03.04-.03.07-.07.08-.12l.07-.36c.02-.09-.04-.18-.12-.21l-2.35-.78c-.08-.03-.15-.09-.19-.16l-.03-.06,2.56-.72c.08-.02.13-.09.13-.18v-.42c0-.05-.03-.11-.07-.14-.04-.03-.1-.05-.15-.04l-3.61.7c-.2.04-.36.2-.39.4h-.92c-.09,0-.17.07-.18.16h-.25c-1.19,0-2.16.97-2.16,2.16v7.78c-.06.03-.1.09-.1.16v.77c0,.05.02.1.07.14l-.49,2.3c-.02.09,0,.19.06.26ZM38.47,751.26c.28,0,.52.23.52.52s-.23.52-.52.52c-.28,0-.52-.23-.52-.52h0c0-.29.23-.52.52-.52Z"/>
  <g>
    <path class="cls-7" d="M54.62,498.39v11.57c0,.23.19.41.41.41h9.09c.23,0,.41-.19.41-.41v-11.57c0-.23-.19-.41-.41-.41h-1.4c.1-.2.16-.42.16-.65v-5.3c0-.81-.67-1.48-1.48-1.48h-3.65c-.82,0-1.48.67-1.48,1.48v5.3c0,.24.06.45.16.65h-1.4c-.23,0-.41.19-.41.42ZM57.1,492.02c0-.36.29-.65.66-.65h3.65c.36,0,.65.29.65.65v1.93c-.51-.19-1.05-.12-1.62.21-.56-.41-1.16-.41-1.71,0-.54-.33-1.09-.39-1.62-.19v-1.94h0ZM57.1,494.88c.46-.31.9-.27,1.4.12.17.13.4.12.55-.03.39-.39.68-.39,1.07,0,.08.08.19.12.29.12.08,0,.17-.02.24-.08.67-.48,1.08-.38,1.41-.14v2.45c0,.36-.29.65-.65.65h-3.65c-.36,0-.66-.29-.66-.65v-2.44ZM55.45,498.8h8.26v10.74h-8.26v-10.74Z"/>
    <path class="cls-7" d="M62.47,500.45h-5.78c-.23,0-.41.19-.41.41v3.3c0,.23.19.41.41.41h5.78c.23,0,.41-.19.41-.41v-3.3c0-.23-.19-.41-.41-.41ZM62.06,503.76h-4.96v-2.48h.83v1.24h.83v-1.24h1.65v1.24h.83v-1.24h.83v2.48Z"/>
  </g>
  <path class="cls-7" d="M62.29,396.28c.06.07.15.12.24.12h1.6c.09,0,.18-.04.24-.12.06-.07.08-.17.06-.26l-.49-2.3s.07-.08.07-.14v-.77c0-.08-.05-.15-.13-.17v-7.82c0-.58.47-1.05,1.05-1.05h.23c0,.1.08.18.18.18,0,0,0,0,0,0h.83s.05.09.07.13v.44h-.05c-.92,0-1.67.75-1.67,1.67v10.74c0,.46.37.83.83.83h3.24c.46,0,.83-.37.83-.83v-10.74c0-.92-.75-1.67-1.67-1.67h-.05v-.43s.01-.02.02-.03l2.48.6s.03,0,.04,0c.04,0,.07,0,.1-.03.04-.03.07-.07.08-.12l.07-.36c.02-.09-.04-.18-.12-.21l-2.35-.78c-.08-.03-.15-.09-.19-.16l-.03-.06,2.56-.72c.08-.02.13-.09.13-.18v-.42c0-.05-.03-.11-.07-.14-.04-.03-.1-.05-.15-.04l-3.61.7c-.2.04-.36.2-.39.4h-.92c-.09,0-.17.07-.18.16h-.25c-1.19,0-2.16.97-2.16,2.16v7.78c-.06.03-.1.09-.1.16v.77c0,.05.02.1.07.14l-.49,2.3c-.02.09,0,.19.06.26ZM66.98,383.08c.28,0,.52.23.52.52s-.23.52-.52.52c-.28,0-.52-.23-.52-.52h0c0-.29.23-.52.52-.52Z"/>
  <path class="cls-7" d="M72.69,281.07c.06.07.15.12.24.12h1.6c.09,0,.18-.04.24-.12.06-.07.08-.17.06-.26l-.49-2.3s.07-.08.07-.14v-.77c0-.08-.05-.15-.13-.17v-7.82c0-.58.47-1.05,1.05-1.05h.23c0,.1.08.18.18.18,0,0,0,0,0,0h.83s.05.09.07.13v.44h-.05c-.92,0-1.67.75-1.67,1.67v10.74c0,.46.37.83.83.83h3.24c.46,0,.83-.37.83-.83v-10.74c0-.92-.75-1.67-1.67-1.67h-.05v-.43s.01-.02.02-.03l2.48.6s.03,0,.04,0c.04,0,.07,0,.1-.03.04-.03.07-.07.08-.12l.07-.36c.02-.09-.04-.18-.12-.21l-2.35-.78c-.08-.03-.15-.09-.19-.16l-.03-.06,2.56-.72c.08-.02.13-.09.13-.18v-.42c0-.05-.03-.11-.07-.14-.04-.03-.1-.05-.15-.04l-3.61.7c-.2.04-.36.2-.39.4h-.92c-.09,0-.17.07-.18.16h-.25c-1.19,0-2.16.97-2.16,2.16v7.78c-.06.03-.1.09-.1.16v.77c0,.05.02.1.07.14l-.49,2.3c-.02.09,0,.19.06.26ZM77.37,267.87c.28,0,.52.23.52.52s-.23.52-.52.52c-.28,0-.52-.23-.52-.52h0c0-.29.23-.52.52-.52Z"/>
  <path class="cls-7" d="M89.6,22.66c.05.06.12.1.2.1h1.34c.08,0,.15-.04.2-.1.05-.06.07-.14.05-.22l-.41-1.92s.06-.07.06-.12v-.65c0-.07-.04-.12-.11-.14v-6.53c0-.48.39-.88.88-.88h.19c0,.08.07.15.15.15,0,0,0,0,0,0h.69s.04.08.06.11v.36h-.04c-.77,0-1.4.62-1.4,1.4v8.97c0,.38.31.69.69.69h2.71c.38,0,.69-.31.69-.69v-8.97c0-.77-.62-1.4-1.4-1.4h-.04v-.36s0-.02.02-.02l2.07.5s.02,0,.04,0c.03,0,.06,0,.09-.02.04-.02.06-.06.07-.1l.06-.3c.01-.08-.03-.15-.1-.17l-1.96-.65c-.07-.02-.13-.07-.16-.14l-.03-.05,2.14-.6c.07-.02.11-.08.11-.15v-.35s-.02-.09-.06-.12c-.04-.03-.08-.04-.13-.03l-3.02.59c-.17.03-.3.17-.32.34h-.77c-.08,0-.14.06-.15.13h-.21c-1,0-1.8.81-1.8,1.8v6.5c-.05.03-.08.08-.08.13v.65s.02.09.06.12l-.41,1.92c-.02.08,0,.16.05.22ZM93.51,11.63c.24,0,.43.19.43.43s-.19.43-.43.43c-.24,0-.43-.19-.43-.43h0c0-.24.19-.43.43-.43Z"/>
  <rect class="cls-6" x="182.79" y="12.31" width="18.18" height="50.76" transform="translate(247.78 -149.7) rotate(95.5)"/>
  <rect class="cls-6" x="133.08" y="23.1" width="26.9" height="7.84" transform="translate(187.47 -116.24) rotate(95.5)"/>
  <rect class="cls-6" x="244.4" y="22.06" width="14.63" height="17.08" transform="translate(301.65 -218.01) rotate(94.43)"/>
  <rect class="cls-6" x="229.33" y="18.44" width="10.39" height="17.08" transform="translate(279.52 -204.76) rotate(94.43)"/>
  <rect class="cls-6" x="231.68" y="45.8" width="13.7" height="38.17" transform="translate(321.63 -167.94) rotate(94.43)"/>
  <rect class="cls-6" x="206.02" y="56.29" width="13.34" height="12.82" transform="translate(291.62 -144.51) rotate(94.43)"/>
  <rect class="cls-6" x="185.05" y="46.35" width="8.68" height="32.71" transform="translate(266.52 -121.28) rotate(94.43)"/>
  <path class="cls-7" d="M59.94,417.63h.39l.64,7.73c.05.56.52,1,1.09,1h5.93c.56,0,1.04-.44,1.09-1l.64-7.73h.39c.2,0,.36-.16.36-.36v-1.45c0-.2-.16-.36-.36-.36h-.5l-1.35-2.71c-.06-.12-.19-.2-.33-.2h-5.82c-.14,0-.26.08-.33.2l-1.35,2.71h-.5c-.2,0-.36.16-.36.36v1.45c0,.2.16.36.36.36ZM66.85,425.63h-3.63v-4c0-.2.16-.36.36-.36h2.91c.2,0,.36.16.36.36v4h0ZM68.36,425.29c-.02.19-.17.33-.36.33h-.42v-4c0-.6-.49-1.09-1.09-1.09h-2.91c-.6,0-1.09.49-1.09,1.09v4h-.42c-.19,0-.35-.14-.36-.33l-.64-7.66h7.94l-.64,7.66h0ZM63.22,413.27h3.63v.73h-3.63v-.73ZM62.35,413.27h.14v1.09c0,.2.16.36.36.36h4.36c.2,0,.36-.16.36-.36v-1.09h.14l1.09,2.18h-7.55l1.09-2.18ZM60.31,416.17h9.45v.73h-9.45s0-.73,0-.73Z"/>
  <rect class="cls-7" x="168.87" y="672.91" width="29.65" height="59.35" transform="translate(52.7 -11.71) rotate(4.26)"/>
  <g>
    <line class="cls-1" x1="171.93" y1="679.61" x2="199.07" y2="681.7"/>
    <line class="cls-1" x1="171.06" y1="687.91" x2="198.2" y2="690"/>
    <line class="cls-1" x1="170.53" y1="696.21" x2="197.67" y2="698.3"/>
    <line class="cls-1" x1="169.79" y1="704.51" x2="196.93" y2="706.6"/>
    <line class="cls-1" x1="169.35" y1="712.81" x2="196.48" y2="714.89"/>
    <line class="cls-1" x1="168.39" y1="721.11" x2="195.53" y2="723.19"/>
    <line class="cls-1" x1="167.89" y1="729.41" x2="195.02" y2="731.49"/>
  </g>
  <polygon class="cls-9" points="166.63 729.71 170.93 671.88 141.36 669.68 137.05 727.51 137.05 727.51 135.2 752.45 195.02 756.91 196.88 731.97 166.63 729.71"/>
  <g>
    <line class="cls-4" x1="169.79" y1="671.72" x2="165.49" y2="731.49"/>
    <line class="cls-4" x1="141.4" y1="677.99" x2="168.53" y2="680.08"/>
    <line class="cls-4" x1="140.53" y1="686.29" x2="167.66" y2="688.37"/>
    <line class="cls-4" x1="140" y1="694.59" x2="167.13" y2="696.67"/>
    <line class="cls-4" x1="139.26" y1="702.89" x2="166.39" y2="704.97"/>
    <line class="cls-4" x1="138.81" y1="711.19" x2="165.95" y2="713.27"/>
    <line class="cls-4" x1="137.85" y1="719.49" x2="164.99" y2="721.57"/>
    <line class="cls-4" x1="137.35" y1="727.79" x2="164.49" y2="729.87"/>
  </g>
  <g>
    <path class="cls-7" d="M118.82,26.62c-.24-.27-.57-.51-.98-.71-.57-.28-1.3-.51-2.12-.65l.21-.06,2.93-.85s.09-.05.13-.09c.03-.05.03-.11.02-.16l-.41-1.42s-.05-.09-.09-.13-.11-.03-.16-.02l-2.93.85-4.87,1.39s-.09.05-.13.09c-.03.05-.03.11-.02.16l.13.44c-.7.19-1.28.46-1.69.77-.51.38-.79.81-.79,1.26v2.59c0,.68.6,1.31,1.71,1.77,1.04.43,2.42.66,3.87.66s2.83-.24,3.87-.66c1.09-.46,1.71-1.08,1.71-1.77v-2.58c0-.32-.13-.62-.38-.9ZM115.29,23.84l.22.77.08.25-.98.28-3.45,1-.3-1.03,4.43-1.28ZM117.57,28.78c-.82.4-1.94.65-3.18.71-.11,0-.21.09-.21.21v.87h-1.17v-.87c0-.11-.09-.21-.21-.21-1.23-.08-2.36-.33-3.18-.71-.77-.36-1.19-.82-1.19-1.26,0-.4.33-.73.62-.92.38-.28.92-.52,1.57-.7l.16.57s.05.09.09.13c.03.02.06.03.11.03.02,0,.05,0,.06-.02l3.62-1.04c1.15.09,2.2.36,2.96.74.73.33,1.12.77,1.12,1.2s-.43.9-1.19,1.26Z"/>
    <path class="cls-7" d="M109.08,21.34c.08.05.14.09.16.17.02.08.02.16-.03.25l-.24.43c-.06.11-.02.24.08.28.03.02.06.03.09.03.08,0,.14-.05.19-.11l.24-.43c.11-.19.13-.4.08-.59-.06-.17-.19-.33-.38-.43-.06-.03-.14-.08-.16-.17-.02-.08,0-.19.08-.28l.19-.27c.06-.09.05-.24-.05-.3-.09-.06-.24-.05-.3.05l-.19.27c-.14.21-.19.43-.14.63.05.19.19.36.38.46Z"/>
    <path class="cls-7" d="M108.29,23.42c.08.05.14.09.16.17.02.08.02.16-.03.25l-.24.43c-.06.11-.02.24.08.28.03.02.06.03.09.03.08,0,.14-.05.19-.11l.24-.43c.11-.19.13-.4.08-.59-.06-.17-.19-.33-.38-.43-.06-.03-.14-.08-.16-.17-.02-.08,0-.19.08-.28l.19-.27c.06-.09.05-.24-.05-.3-.09-.06-.24-.05-.3.05l-.19.27c-.14.21-.19.43-.14.63.05.21.19.36.38.46Z"/>
    <path class="cls-7" d="M109.39,23.38c.05.19.19.36.38.46.08.05.14.09.16.17.02.08.02.16-.03.25l-.24.43c-.06.11-.02.24.08.28.03.02.06.03.09.03.08,0,.14-.05.19-.11l.24-.43c.11-.19.13-.4.08-.59-.06-.17-.19-.33-.38-.43-.06-.03-.14-.08-.16-.17-.02-.08,0-.19.08-.28l.17-.27c.06-.09.05-.24-.05-.3-.09-.06-.24-.05-.3.05l-.17.27c-.14.21-.19.43-.14.63Z"/>
  </g>
  <polygon class="cls-7" points="118.15 15.16 115.28 12.06 111.88 14.56 112.61 15.55 114.46 14.2 113.9 19.98 115.13 20.1 115.69 14.31 117.24 16 118.15 15.16"/>
</svg>